<svg alt="Consórcio de Imóveis" class="h-8" viewBox="0 0 48 38" xmlns="http://www.w3.org/2000/svg"><path d="M8.16016 13.7841C8.16016 13.4 8.31603 13.0317 8.59349 12.7601C8.87094 12.4885 9.24726 12.3359 9.63964 12.3359H13.6934C14.0858 12.3359 14.4621 12.4885 14.7396 12.7601C15.017 13.0317 15.1729 13.4 15.1729 13.7841C15.1729 14.1681 15.017 14.5365 14.7396 14.8081C14.4621 15.0796 14.0858 15.2322 13.6934 15.2322H9.63964C9.24726 15.2322 8.87094 15.0796 8.59349 14.8081C8.31603 14.5365 8.16016 14.1681 8.16016 13.7841Z"></path><path d="M8.16016 18.8231C8.16016 18.4391 8.31603 18.0707 8.59349 17.7991C8.87094 17.5276 9.24726 17.375 9.63964 17.375H13.6934C14.0858 17.375 14.4621 17.5276 14.7396 17.7991C15.017 18.0707 15.1729 18.4391 15.1729 18.8231C15.1653 19.2049 15.007 19.5689 14.7312 19.8389C14.4554 20.1089 14.0834 20.2639 13.6934 20.2713H9.63964C9.24726 20.2713 8.87094 20.1187 8.59349 19.8471C8.31603 19.5755 8.16016 19.2072 8.16016 18.8231Z"></path><path d="M8.16016 23.831C8.16016 23.4469 8.31603 23.0785 8.59349 22.807C8.87094 22.5354 9.24726 22.3828 9.63964 22.3828H13.6934C14.0834 22.3902 14.4554 22.5452 14.7312 22.8152C15.007 23.0852 15.1653 23.4492 15.1729 23.831C15.1729 24.215 15.017 24.5834 14.7396 24.8549C14.4621 25.1265 14.0858 25.2791 13.6934 25.2791H9.63964C9.24726 25.2791 8.87094 25.1265 8.59349 24.8549C8.31603 24.5834 8.16016 24.215 8.16016 23.831Z"></path><path d="M0.497119 11.6385C0.367754 11.3094 0.365509 10.9454 0.490807 10.6148C0.616105 10.2842 0.860335 10.0097 1.17768 9.84283L19.7008 0.632676C19.8756 0.548649 20.0656 0.499226 20.26 0.487241C20.4543 0.475255 20.6492 0.500944 20.8334 0.562832C21.0175 0.624721 21.1874 0.721592 21.3333 0.847889C21.4791 0.974187 21.5981 1.12743 21.6833 1.29882C21.8534 1.63862 21.8837 2.02934 21.7681 2.3904C21.6525 2.75146 21.3997 3.05533 21.0619 3.23932L2.47962 12.2757C2.30742 12.3647 2.11866 12.4189 1.9246 12.4349C1.73055 12.451 1.53517 12.4286 1.35014 12.3692C1.16511 12.3097 0.994221 12.2143 0.847663 12.0888C0.701104 11.9633 0.581885 11.8101 0.497119 11.6385Z"></path><path fill-rule="evenodd" clip-rule="evenodd" d="M3.30859 33.0102V11.375H6.26756V33.0102C6.26756 33.3942 6.42343 33.7626 6.70089 34.0342C6.97834 34.3057 7.35466 34.4583 7.74704 34.4583H40.2956C40.688 34.4583 41.0643 34.3057 41.3418 34.0342C41.6192 33.7626 41.7751 33.3942 41.7751 33.0102V16.9069L44.7341 18.5288V33.0102C44.7341 34.1624 44.2665 35.2674 43.4341 36.0821C42.6017 36.8969 41.4728 37.3546 40.2956 37.3546H7.74704C6.56989 37.3546 5.44095 36.8969 4.60858 36.0821C3.77621 35.2674 3.30859 34.1624 3.30859 33.0102Z"></path><path d="M46.7152 16.5606L19.4336 6.74219V9.8412L45.798 19.3699C45.9787 19.4289 46.1694 19.4524 46.3594 19.4392C46.5494 19.426 46.7349 19.3763 46.9052 19.2929C47.0756 19.2095 47.2275 19.0941 47.3523 18.9533C47.4771 18.8125 47.5723 18.649 47.6325 18.4721C47.6928 18.2952 47.7168 18.1085 47.7033 17.9225C47.6898 17.7366 47.639 17.555 47.5538 17.3883C47.4687 17.2216 47.3508 17.0729 47.2069 16.9507C47.063 16.8286 46.8959 16.7354 46.7152 16.6764V16.5606Z"></path><path fill-rule="evenodd" clip-rule="evenodd" d="M34.7011 27.2193V34.7496H25.8242V27.2193C25.843 26.9452 25.9169 26.6775 26.0417 26.4314C26.1665 26.1854 26.3397 25.9659 26.5514 25.7856C26.7631 25.6053 27.0092 25.4677 27.2754 25.3807C27.5416 25.2937 27.8227 25.2591 28.1026 25.2788H32.6002C33.1354 25.2848 33.6487 25.4878 34.038 25.8473C34.4272 26.2069 34.664 26.6967 34.7011 27.2193Z"></path><path fill-rule="evenodd" clip-rule="evenodd" d="M17.0678 5.18346V34.6965C17.0678 35.5075 16.3872 34.3779 15.5883 34.3779H7.74704C7.36956 34.3786 7.0061 34.238 6.73106 33.9849C6.45602 33.7319 6.29021 33.3855 6.26756 33.0167V10.4547L3.30859 11.9028V33.0167C3.30859 34.1689 3.77621 35.2739 4.60858 36.0886C5.44095 36.9034 6.56989 37.3611 7.74704 37.3611H15.5883C18.0442 37.3611 20.0267 37.0425 20.0267 34.6386V4.05392C20.041 3.91912 20.041 3.78324 20.0267 3.64844L17.0678 5.18346Z"></path></svg>